<svg width="45" height="10" viewBox="0 0 45 10" fill="none" xmlns="http://www.w3.org/2000/svg">
<path fill-rule="evenodd" clip-rule="evenodd" d="M40.1102 0.580402C40.3069 0.383682 40.6259 0.383681 40.8226 0.5804L44.8525 4.61025C44.9469 4.70472 45 4.83284 45 4.96644C45 5.10004 44.9469 5.22817 44.8525 5.32263L40.8226 9.35248C40.6259 9.5492 40.3069 9.5492 40.1102 9.35248C39.9135 9.15576 39.9135 8.83681 40.1102 8.6401L43.2802 5.47017H0.503731C0.225528 5.47017 0 5.24464 0 4.96644C0 4.68824 0.225528 4.46271 0.503731 4.46271H43.2802L40.1102 1.29279C39.9135 1.09607 39.9135 0.777122 40.1102 0.580402Z" fill="#F87142"/>
</svg>
